<svg xmlns="http://www.w3.org/2000/svg" data-name="Magnifying Glass" viewBox="0 0 48 48" x="0px" y="0px"><path d="m34.226,17.326c.497-.241.705-.838.465-1.335-.171-.353-.379-.722-.655-1.162-.294-.466-.91-.606-1.38-.313-.467.294-.607.912-.313,1.379.236.375.41.682.548.966.173.357.529.565.901.565.146,0,.294-.032.435-.1Z"/><path d="m23.356,8.329c-.54-.052-1.032.365-1.078.916-.044.55.365,1.033.916,1.078,2.645.215,5.168,1.317,7.105,3.103.192.177.436.265.678.265.27,0,.538-.108.735-.322.374-.406.349-1.039-.058-1.413-2.265-2.087-5.212-3.375-8.299-3.625Z"/><path d="m58.841,52.86l-14.674-14.673c-.543-.543-1.323-.699-2.01-.485l-5.043-5.043c2.143-3.042,3.311-6.655,3.311-10.453,0-4.866-1.895-9.441-5.336-12.882-3.44-3.441-8.016-5.336-12.882-5.336s-9.441,1.895-12.883,5.336c-7.103,7.104-7.103,18.662,0,25.765,3.441,3.441,8.017,5.336,12.883,5.336,3.798,0,7.41-1.168,10.453-3.311l5.042,5.042c-.215.688-.059,1.467.485,2.011l14.673,14.674c.78.779,1.804,1.169,2.828,1.169s2.049-.39,2.829-1.169l.323-.323c1.559-1.56,1.559-4.098,0-5.657ZM10.738,33.675c-6.323-6.323-6.323-16.613,0-22.937,3.063-3.063,7.137-4.75,11.469-4.75s8.404,1.687,11.468,4.75c3.063,3.063,4.75,7.136,4.75,11.468s-1.687,8.405-4.75,11.468-7.136,4.75-11.468,4.75-8.405-1.687-11.469-4.75Zm24.351,1.414c.273-.273.52-.565.773-.853l4.714,4.714-1.626,1.626-4.714-4.714c.287-.254.579-.5.852-.773Zm22.338,22.015l-.323.323c-.778.778-2.049.78-2.829,0l-14.673-14.674.056-.056,3.04-3.04.056-.056,14.674,14.673c.779.78.779,2.049,0,2.829Z"/></svg>